<?xml version="1.0" standalone="no"?>
<!DOCTYPE svg PUBLIC "-//W3C//DTD SVG 20010904//EN"
 "http://www.w3.org/TR/2001/REC-SVG-20010904/DTD/svg10.dtd">
<svg version="1.0" xmlns="http://www.w3.org/2000/svg"
 width="225.000000pt" height="225.000000pt" viewBox="0 0 225.000000 225.000000"
 preserveAspectRatio="xMidYMid meet">
<metadata>
Created by potrace 1.11, written by Peter Selinger 2001-2013
</metadata>
<g transform="translate(0.000000,225.000000) scale(0.100000,-0.100000)"
fill="#000000" stroke="none">
<path d="M0 1959 l0 -290 37 30 c20 16 41 27 46 24 6 -3 7 -1 4 4 -8 13 109
117 122 108 5 -3 13 0 17 6 4 8 3 9 -4 5 -7 -4 -12 -3 -12 1 0 10 42 38 53 35
5 -1 6 2 2 7 -7 12 29 33 40 23 5 -4 5 -2 2 4 -4 6 6 22 21 35 134 118 161
139 176 139 31 0 31 -31 0 -55 -38 -31 -26 -40 33 -25 26 7 58 13 70 13 11 1
19 5 17 8 -5 9 68 29 79 22 6 -3 7 -1 4 4 -4 7 21 18 65 29 88 21 154 11 266
-42 40 -19 89 -34 108 -34 24 0 33 -4 28 -12 -4 -7 -3 -8 5 -4 6 4 9 11 7 15
-8 13 64 42 88 36 16 -5 17 -4 7 4 -44 29 231 36 319 7 104 -34 111 -37 99
-52 -6 -8 -16 -11 -22 -7 -6 3 -7 1 -3 -5 7 -12 -71 -79 -88 -74 -6 2 -8 0 -3
-4 13 -13 -45 -64 -72 -64 -42 0 -81 -83 -46 -97 14 -5 14 -8 -2 -27 l-18 -21
22 19 c13 10 20 22 17 27 -2 5 8 11 23 15 15 3 51 12 80 20 28 8 57 14 64 14
8 0 -23 -37 -69 -83 -76 -76 -97 -107 -73 -107 6 0 13 5 16 10 4 6 11 7 17 4
6 -4 8 -3 5 3 -8 13 37 56 48 46 4 -5 5 -3 2 3 -8 14 36 57 48 47 4 -5 5 -3 2
3 -8 14 17 37 28 26 5 -4 5 -2 2 5 -4 6 6 22 23 36 42 36 38 47 -17 48 -27 1
-61 4 -77 8 l-28 6 71 63 c39 35 71 70 71 79 0 12 6 11 35 -6 23 -14 37 -17
41 -9 4 7 3 8 -4 4 -7 -4 -12 -1 -12 7 0 7 -11 24 -25 37 -44 42 5 83 51 43
10 -10 56 -51 101 -91 46 -41 81 -79 80 -85 -1 -6 5 -11 14 -12 24 0 122 -92
113 -106 -5 -8 -3 -9 5 -4 8 4 27 -6 49 -27 21 -18 47 -42 60 -52 l22 -19 0
286 0 287 -1125 0 -1125 0 0 -291z"/>
<path d="M495 2071 c-3 -5 -2 -12 3 -15 5 -3 9 1 9 9 0 17 -3 19 -12 6z"/>
<path d="M686 2015 c-10 -8 -23 -12 -29 -8 -6 3 -7 1 -3 -5 11 -18 -65 -128
-78 -114 -4 3 -4 -2 0 -12 6 -15 4 -17 -6 -11 -8 5 -11 4 -6 -3 8 -13 -50 -97
-67 -97 -7 0 -11 -7 -9 -16 1 -9 -7 -24 -18 -34 -19 -18 -20 -17 -20 3 0 12
-6 22 -13 22 -20 0 -7 -84 13 -88 9 -1 31 22 55 57 22 32 44 56 49 53 5 -3 7
-1 3 4 -3 5 4 25 14 44 l20 35 -5 -30 c-3 -16 -8 -52 -11 -80 -4 -27 -14 -55
-23 -63 -10 -7 -11 -11 -4 -7 7 4 12 0 12 -9 0 -9 -4 -16 -9 -16 -4 0 -6 -11
-3 -25 3 -17 0 -25 -9 -25 -12 0 -12 -2 -1 -9 8 -4 13 -12 13 -17 -2 -17 17
-9 48 19 l32 28 -2 155 c-1 132 2 158 16 174 17 19 30 20 55 5 13 -8 13 -7 1
8 -7 9 -17 14 -22 11 -5 -3 0 11 12 30 23 40 23 42 -5 21z"/>
<path d="M1610 2011 c0 -6 4 -13 10 -16 6 -3 7 1 4 9 -7 18 -14 21 -14 7z"/>
<path d="M1815 1999 c-4 -6 -5 -12 -2 -15 2 -3 7 2 10 11 7 17 1 20 -8 4z"/>
<path d="M1860 2006 c0 -2 8 -10 18 -17 15 -13 16 -12 3 4 -13 16 -21 21 -21
13z"/>
<path d="M1329 1961 c-25 -15 -56 -41 -68 -57 -13 -17 -20 -21 -17 -11 4 11 2
16 -5 12 -6 -4 -8 -13 -5 -21 3 -8 2 -23 -2 -35 -7 -17 -18 -21 -75 -23 -37
-2 -64 0 -61 5 3 5 -1 7 -8 4 -7 -3 -19 -1 -27 4 -18 11 -5 30 43 63 17 12 28
18 24 13 -8 -9 9 -35 23 -35 8 0 59 80 59 93 0 12 -70 8 -93 -5 -12 -7 -49
-15 -81 -18 -65 -5 -83 -23 -42 -41 24 -11 24 -12 8 -38 -9 -14 -19 -28 -22
-31 -4 -3 -8 -28 -9 -57 -2 -50 -1 -53 31 -73 18 -11 44 -20 58 -20 38 1 103
34 132 68 l26 31 12 -29 c9 -22 9 -37 0 -65 -17 -51 -1 -63 38 -30 18 15 37
23 43 19 8 -4 9 -3 5 4 -7 12 100 71 122 66 7 -1 9 0 4 2 -5 2 -7 18 -4 34 2
16 -1 44 -8 62 -7 18 -14 53 -17 78 -5 40 -16 59 -34 60 -3 0 -25 -13 -50 -29z
m59 -88 c14 -65 7 -78 -45 -76 -7 1 -10 -3 -8 -8 6 -8 -66 -32 -73 -24 -3 2 1
12 9 22 9 11 10 14 2 9 -9 -5 -13 0 -13 14 0 30 19 62 32 54 7 -4 8 -2 4 5
-10 15 13 43 27 34 6 -3 7 -1 3 5 -9 15 26 33 41 21 6 -6 16 -31 21 -56z
m-309 -69 c-17 -21 0 -37 35 -30 l31 6 -25 -20 c-16 -13 -33 -18 -48 -15 -17
4 -21 2 -16 -6 4 -7 2 -10 -7 -7 -23 7 -34 54 -21 83 10 22 14 24 37 13 19 -8
22 -14 14 -24z"/>
<path d="M1302 1847 c-8 -10 -6 -13 9 -14 10 -1 19 5 19 13 0 17 -14 18 -28 1z"/>
<path d="M1370 1830 c-9 -6 -10 -10 -3 -10 6 0 15 5 18 10 8 12 4 12 -15 0z"/>
<path d="M836 1949 c2 -4 -24 -12 -59 -18 -34 -7 -74 -14 -89 -17 -23 -5 -27
-10 -30 -53 l-3 -48 30 10 c17 5 35 14 41 19 17 12 156 60 161 54 5 -5 -86
-76 -98 -76 -5 0 -9 7 -9 16 0 13 -3 14 -13 5 -8 -6 -17 -8 -21 -4 -4 4 -4 0
-1 -9 4 -9 -5 -49 -19 -90 -14 -41 -26 -84 -26 -96 0 -44 20 -20 41 48 14 47
30 77 47 91 l26 20 34 -40 c45 -54 55 -52 47 7 -11 84 -11 87 8 86 10 -1 16 1
13 4 -4 3 5 18 20 33 42 44 30 62 -43 63 -33 1 -59 -2 -57 -5z"/>
<path d="M1860 1956 c0 -2 8 -10 18 -17 15 -13 16 -12 3 4 -13 16 -21 21 -21
13z"/>
<path d="M1906 1951 c-4 -5 -2 -12 3 -15 5 -4 12 -2 15 3 4 5 2 12 -3 15 -5 4
-12 2 -15 -3z"/>
<path d="M1824 1942 c4 -3 14 -7 22 -8 9 -1 13 0 10 4 -4 3 -14 7 -22 8 -9 1
-13 0 -10 -4z"/>
<path d="M1195 1891 c-6 -11 13 -26 22 -17 4 3 1 6 -6 6 -7 0 -9 5 -6 10 3 6
4 10 1 10 -3 0 -7 -4 -11 -9z"/>
<path d="M205 1811 c-3 -5 -2 -12 3 -15 5 -3 9 1 9 9 0 17 -3 19 -12 6z"/>
<path d="M1745 1703 c-60 -58 -155 -150 -210 -204 -55 -55 -106 -99 -113 -99
-6 0 -11 -4 -10 -8 5 -16 -86 -90 -104 -87 -10 2 -16 0 -13 -6 4 -5 12 -6 18
-3 7 4 -3 -9 -22 -29 -19 -20 -39 -33 -44 -30 -6 3 -7 1 -4 -4 4 -6 -1 -17
-10 -24 -14 -13 -16 -11 -11 19 2 18 0 36 -5 39 -6 4 -7 1 -2 -7 6 -10 4 -12
-8 -7 -10 4 -16 2 -14 -5 3 -17 -52 -41 -90 -40 -18 1 -51 10 -73 21 -34 17
-38 17 -31 3 23 -43 94 -111 121 -117 24 -5 30 -12 30 -33 0 -15 4 -34 10 -42
6 -9 5 -20 -3 -30 -10 -13 -10 -13 3 -3 20 15 141 -25 176 -58 27 -25 73 -116
84 -166 7 -27 5 -33 -9 -33 -11 0 -27 21 -44 56 l-28 56 -232 -7 c-226 -8
-231 -7 -217 11 14 18 14 18 -2 5 -10 -7 -16 -17 -13 -21 3 -5 -5 -34 -17 -65
l-21 -56 22 -15 c12 -9 18 -20 15 -26 -4 -7 -2 -8 4 -4 15 9 124 -73 115 -87
-3 -6 -1 -7 5 -3 18 11 70 -34 77 -66 11 -46 -12 -98 -51 -114 -49 -21 -233
-46 -279 -38 -44 7 -119 60 -109 76 4 7 2 8 -5 4 -6 -4 -59 31 -129 86 -64 52
-161 129 -214 171 l-98 77 0 83 c1 84 20 183 34 170 4 -4 4 -1 1 8 -3 8 10 75
30 149 19 74 37 146 40 160 20 84 28 109 35 105 5 -3 6 4 3 16 -5 19 3 57 43
193 8 26 14 57 14 68 0 10 3 17 8 15 4 -3 7 5 7 18 0 33 -12 21 -26 -25 -7
-22 -16 -37 -20 -34 -5 3 -7 -1 -4 -8 6 -17 -19 -90 -29 -81 -4 4 -4 -1 0 -11
6 -15 4 -17 -6 -11 -8 5 -11 4 -7 -2 4 -6 -9 -55 -29 -109 -19 -55 -42 -120
-51 -146 -9 -27 -20 -45 -26 -41 -6 3 -7 1 -3 -5 6 -10 -24 -122 -34 -122 -3
0 -15 28 -28 63 -13 34 -32 84 -43 110 -11 27 -18 55 -15 63 3 8 2 13 -3 10
-4 -3 -22 33 -40 79 -18 47 -34 85 -37 85 -2 0 -4 -358 -4 -795 l0 -795 1125
0 1125 0 0 790 c0 435 -2 790 -4 790 -3 0 -35 -61 -72 -135 -39 -80 -70 -132
-77 -128 -6 3 -7 1 -3 -5 4 -6 -8 -41 -27 -78 l-33 -66 -38 134 c-21 73 -45
153 -52 178 -44 143 -85 287 -86 307 -2 13 -3 23 -3 23 0 0 -49 -48 -110 -107z
m10 -295 c-18 -21 -25 -38 -20 -52 3 -12 8 -48 11 -81 4 -49 2 -66 -15 -92
-40 -64 -123 -93 -267 -93 -58 0 -95 -4 -103 -12 -11 -11 -13 -9 -8 12 3 14 9
43 12 65 7 38 12 43 98 94 50 30 97 54 104 54 7 0 11 3 8 5 -4 4 188 127 203
131 2 1 -8 -13 -23 -31z m-213 -538 c49 -148 61 -185 65 -200 3 -8 -20 30 -51
85 -30 55 -53 106 -51 113 3 7 0 10 -5 7 -6 -3 -10 -1 -10 4 0 19 -3 25 -22
45 -26 28 -22 38 14 34 30 -3 33 -7 60 -88z m-1190 -292 c-1 -5 1 -7 6 -4 5 3
42 -20 83 -50 l74 -56 -60 7 c-90 11 -172 46 -158 68 3 6 1 7 -5 3 -16 -10
-32 27 -32 74 l0 41 48 -37 c26 -20 46 -40 44 -46z m886 -61 c53 -44 69 -63
60 -69 -9 -6 -6 -7 9 -3 12 3 24 1 28 -5 4 -6 29 -29 57 -50 l50 -40 -64 6
c-65 7 -209 37 -228 49 -6 3 -10 45 -10 96 0 103 -8 102 98 16z m-928 -77 c10
-18 8 -20 -20 -20 -32 0 -37 -8 -17 -30 10 -12 9 -12 -8 0 -11 8 -22 16 -24
17 -6 4 41 53 50 53 5 0 13 -9 19 -20z m750 -94 c0 -15 12 -34 29 -49 17 -14
27 -28 23 -32 -4 -5 -1 -5 6 -1 14 8 100 -10 116 -25 17 -15 -124 -21 -207 -8
-92 15 -173 42 -170 58 6 23 -24 -2 -45 -39 -12 -22 -27 -40 -33 -40 -6 0 -7
-4 -4 -10 3 -5 2 -10 -4 -10 -5 0 -13 21 -17 48 -4 26 -11 57 -15 70 -8 22 -7
22 69 22 42 0 113 9 157 19 44 11 83 20 88 20 4 1 7 -10 7 -23z m-492 -58 c-7
-4 -21 -8 -30 -8 -20 0 -23 -10 -8 -28 5 -7 0 -4 -11 7 -22 19 -18 47 4 35 7
-4 9 -4 5 1 -4 4 -3 14 4 22 9 11 14 11 30 -4 14 -13 16 -18 6 -25z m945 -60
c-7 -35 -15 -67 -16 -72 -2 -4 -15 19 -29 52 l-26 61 27 -5 c18 -4 32 0 40 10
8 9 15 16 16 16 1 0 -4 -28 -12 -62z"/>
<path d="M1386 1192 c-3 -5 1 -9 9 -9 8 0 12 4 9 9 -3 4 -7 8 -9 8 -2 0 -6 -4
-9 -8z"/>
<path d="M297 614 c-3 -3 -3 -13 0 -22 5 -11 3 -13 -7 -7 -9 5 -11 4 -6 -4 10
-16 25 -4 23 19 -1 22 -1 22 -10 14z"/>
<path d="M361 534 c0 -11 3 -14 6 -6 3 7 2 16 -1 19 -3 4 -6 -2 -5 -13z"/>
<path d="M850 316 c0 -2 7 -7 16 -10 8 -3 12 -2 9 4 -6 10 -25 14 -25 6z"/>
<path d="M1481 231 c-8 -5 -9 -11 -3 -15 5 -3 12 1 16 9 6 17 6 18 -13 6z"/>
<path d="M2060 1800 c-9 -6 -10 -10 -3 -10 6 0 15 5 18 10 8 12 4 12 -15 0z"/>
<path d="M155 1791 c-3 -5 -2 -12 3 -15 5 -3 9 1 9 9 0 17 -3 19 -12 6z"/>
<path d="M1749 1755 c-1 -3 -2 -8 -3 -12 -1 -5 -5 -15 -10 -23 -6 -9 -1 -8 12
4 12 10 19 23 16 27 -6 10 -13 12 -15 4z"/>
<path d="M2120 1756 c0 -2 7 -7 16 -10 8 -3 12 -2 9 4 -6 10 -25 14 -25 6z"/>
<path d="M1700 1746 c0 -2 7 -7 16 -10 8 -3 12 -2 9 4 -6 10 -25 14 -25 6z"/>
<path d="M1411 1726 c-9 -11 -9 -16 1 -22 7 -4 10 -4 6 1 -4 4 -3 14 3 22 6 7
9 13 6 13 -2 0 -10 -6 -16 -14z"/>
<path d="M1536 1731 c-3 -5 1 -11 9 -14 9 -4 12 -1 8 9 -6 16 -10 17 -17 5z"/>
<path d="M827 1719 c7 -7 15 -10 18 -7 3 3 -2 9 -12 12 -14 6 -15 5 -6 -5z"/>
<path d="M1176 1708 c3 -4 11 -5 19 -1 21 7 19 12 -4 10 -11 0 -18 -5 -15 -9z"/>
<path d="M1450 1691 c0 -6 4 -13 10 -16 6 -3 7 1 4 9 -7 18 -14 21 -14 7z"/>
<path d="M406 1677 c3 -10 9 -15 12 -12 3 3 0 11 -7 18 -10 9 -11 8 -5 -6z"/>
<path d="M490 1660 c-9 -6 -10 -10 -3 -10 6 0 15 5 18 10 8 12 4 12 -15 0z"/>
<path d="M1630 1646 c0 -2 7 -7 16 -10 8 -3 12 -2 9 4 -6 10 -25 14 -25 6z"/>
<path d="M375 1631 c-3 -5 -2 -12 3 -15 5 -3 9 1 9 9 0 17 -3 19 -12 6z"/>
<path d="M891 1590 c-28 -22 -51 -42 -51 -45 0 -6 32 6 48 18 9 7 12 -7 12
-67 0 -61 3 -76 15 -76 17 0 17 -2 15 103 -1 48 3 84 11 93 20 25 2 15 -50
-26z"/>
<path d="M1120 1608 c0 -15 -4 -29 -9 -32 -11 -7 -2 -56 11 -56 6 0 7 -7 4
-16 -3 -9 -2 -12 5 -9 6 4 8 13 5 21 -7 17 25 19 42 2 17 -17 15 -53 -3 -68
-17 -14 -50 -5 -39 11 4 8 0 8 -15 0 -27 -15 -27 -30 1 -40 22 -8 62 9 80 34
13 17 9 62 -7 75 -11 9 -12 16 -5 25 7 8 5 12 -5 12 -8 0 -12 -4 -9 -9 6 -9
-29 -11 -39 -2 -16 16 8 34 45 34 27 0 38 4 36 12 -3 8 -19 12 -43 10 -24 -3
-41 1 -46 10 -6 9 -9 5 -9 -14z"/>
<path d="M1017 1613 c-39 -3 -57 -8 -54 -16 2 -7 21 -10 51 -8 l47 3 -26 -51
c-14 -28 -28 -51 -31 -51 -3 0 -2 5 2 12 4 7 3 8 -5 4 -6 -4 -9 -12 -5 -17 3
-5 -1 -20 -9 -32 -12 -18 -12 -26 -2 -40 10 -15 13 -12 25 23 7 22 18 37 23
33 6 -3 7 -1 3 6 -4 6 6 36 23 66 31 54 38 77 24 73 -5 -1 -34 -3 -66 -5z"/>
<path d="M1280 1585 c-13 -21 -26 -32 -33 -28 -7 3 -9 3 -6 -1 3 -3 1 -31 -6
-61 -7 -30 -10 -53 -5 -50 4 3 13 -2 20 -10 18 -22 43 -18 74 10 34 31 34 69
1 91 -33 22 -45 10 -17 -16 12 -12 22 -26 22 -33 0 -22 -17 -40 -30 -32 -9 6
-11 4 -5 -5 6 -10 4 -12 -9 -7 -10 4 -20 7 -22 7 -2 0 -4 14 -4 30 0 34 35
110 50 110 6 0 10 7 10 15 0 25 -17 17 -40 -20z"/>
<path d="M683 1555 c0 -8 4 -12 9 -9 5 3 6 10 3 15 -9 13 -12 11 -12 -6z"/>
<path d="M629 1520 c-7 -22 -16 -37 -22 -33 -6 3 -7 1 -3 -5 4 -6 12 -9 19 -6
7 2 42 -17 79 -43 158 -113 223 -159 236 -167 25 -15 4 12 -49 61 -27 25 -46
51 -42 57 3 6 3 8 -2 4 -4 -4 -14 -3 -22 3 -11 10 -11 15 -1 28 11 14 11 14
-3 4 -13 -10 -24 -4 -67 40 -29 29 -49 57 -45 62 5 4 3 5 -3 2 -6 -4 -19 2
-29 13 -26 28 -33 25 -46 -20z"/>
<path d="M2187 1549 c7 -7 15 -10 18 -7 3 3 -2 9 -12 12 -14 6 -15 5 -6 -5z"/>
<path d="M1150 1506 c0 -2 7 -7 16 -10 8 -3 12 -2 9 4 -6 10 -25 14 -25 6z"/>
<path d="M1980 1450 c-6 -11 -8 -20 -6 -20 3 0 10 9 16 20 6 11 8 20 6 20 -3
0 -10 -9 -16 -20z"/>
<path d="M478 1442 c35 -37 60 -70 56 -74 -2 -3 -8 -27 -13 -55 -15 -77 -4
-119 44 -169 23 -25 43 -42 46 -40 3 3 23 -1 44 -9 25 -9 82 -14 149 -15 90 0
107 -2 103 -14 -4 -10 -1 -13 9 -9 17 6 17 16 2 85 -7 29 -18 57 -25 61 -7 5
-10 13 -7 19 4 6 3 8 -2 5 -14 -8 -75 24 -67 36 3 5 1 7 -5 3 -9 -5 -133 65
-286 162 -56 36 -75 41 -48 14z"/>
<path d="M616 1442 c-3 -5 1 -9 9 -9 8 0 12 4 9 9 -3 4 -7 8 -9 8 -2 0 -6 -4
-9 -8z"/>
<path d="M1369 1433 c-12 -16 -12 -17 2 -6 9 7 20 9 24 5 5 -4 5 -1 1 6 -9 16
-11 15 -27 -5z"/>
<path d="M1215 1410 c10 -11 20 -20 23 -20 3 0 -3 9 -13 20 -10 11 -20 20 -23
20 -3 0 3 -9 13 -20z"/>
<path d="M100 1386 c0 -2 7 -7 16 -10 8 -3 12 -2 9 4 -6 10 -25 14 -25 6z"/>
<path d="M775 1349 c-4 -6 -5 -12 -2 -15 2 -3 7 2 10 11 7 17 1 20 -8 4z"/>
<path d="M780 1311 c0 -7 -5 -9 -12 -5 -7 5 -8 3 -3 -5 5 -9 10 -10 18 -2 6 6
8 14 4 18 -4 3 -7 1 -7 -6z"/>
<path d="M165 1250 c3 -5 8 -10 11 -10 2 0 4 5 4 10 0 6 -5 10 -11 10 -5 0 -7
-4 -4 -10z"/>
<path d="M296 1247 c3 -10 9 -15 12 -12 3 3 0 11 -7 18 -10 9 -11 8 -5 -6z"/>
<path d="M983 1155 c0 -8 4 -12 9 -9 5 3 6 10 3 15 -9 13 -12 11 -12 -6z"/>
<path d="M943 1095 c0 -8 4 -12 9 -9 5 3 6 10 3 15 -9 13 -12 11 -12 -6z"/>
<path d="M785 989 c-4 -5 -17 -9 -28 -8 -12 0 -27 1 -34 0 -6 -1 -35 -73 -65
-161 -29 -88 -56 -160 -61 -160 -4 0 -6 4 -2 9 3 5 1 12 -4 15 -11 7 -9 -13 3
-33 5 -8 4 -16 -4 -21 -8 -5 -9 -10 -1 -14 5 -4 18 8 27 26 9 18 29 56 44 83
15 28 49 91 75 142 27 50 51 90 54 88 3 -2 6 8 6 21 0 27 -1 28 -10 13z"/>
<path d="M1343 885 c-10 -11 -9 -13 6 -12 11 1 17 7 14 14 -6 16 -5 16 -20 -2z"/>
<path d="M825 670 c-3 -6 1 -7 9 -4 18 7 21 14 7 14 -6 0 -13 -4 -16 -10z"/>
<path d="M573 595 c0 -8 4 -12 9 -9 5 3 6 10 3 15 -9 13 -12 11 -12 -6z"/>
<path d="M610 601 c0 -6 4 -13 10 -16 6 -3 7 1 4 9 -7 18 -14 21 -14 7z"/>
</g>
</svg>
